Shared By:
##    ##    ###    ##      ## ##       ####  ######      ###    ######## ######## 
##   ##    ## ##   ##  ##  ## ##        ##  ##    ##    ## ##   ##       ##       
##  ##    ##   ##  ##  ##  ## ##        ##  ##         ##   ##  ##       ##       
#####    ##     ## ##  ##  ## ##        ##  ##   #### ##     ## #######  #######  
##  ##   ######### ##  ##  ## ##        ##  ##    ##  #########       ##       ## 
##   ##  ##     ## ##  ##  ## ##        ##  ##    ##  ##     ## ##    ## ##    ## 
##    ## ##     ##  ###  ###  ######## ####  ######   ##     ##  ######   ######  


Poster: 
http://leetleech.org/images/97794729627070020665.jpg


IMDB: 
http://www.imdb.com/title/tt0060390


Nfo:

Media Info:
General
File name : Fahrenheit 451(1966)
Format : AVI
Format/Info : Audio Video Interleave
File size : 701 MiB
Duration : 1h 52mn
Overall bit rate mode : Variable
verall bit rate : 871 Kbps
Writing application : Nandub v1.0rc2
Writing library : Nandub build 1852/release


Video
ID : 0
Format : MPEG-4 Visual
Codec ID : DIV3
Codec ID/Hint : DivX 3 Low
Duration : 1h 52mn
Bit rate : 809 Kbps
Width : 512 pixels
Height : 272 pixels
Display aspect ratio : 1.882
Frame rate : 23.976 fps
Color space : YUV
Chroma subsampling : 4:2:0
Bit depth : 8 bits
Compression mode : Lossy
Bits/(Pixel*Frame) : 0.242
Stream size : 651 MiB (93%)


Audio
ID : 1
Format : MPEG Audio
Format version : Version 1
Format profile : Layer 3
Codec ID : 55
Codec ID/Hint : MP3
Duration : 1h 52mn
Bit rate mode : Variable
Bit rate : 50.2 Kbps
Channel(s) : 1 channel
Sampling rate : 44.1 KHz
Compression mode : Lossy
Stream size : 40.4 MiB (6%)
Alignment : Aligned on interleaves
Interleave, duration : 26 ms (0.63 video frame)
Interleave, preload duration : 534 ms
Writing library : LAME3.89 (beta)


Screens:
 
http://leetleech.org/images/93655882127532875481.png
 
http://leetleech.org/images/76380070874719360420.png
 
http://leetleech.org/images/38165070215112748198.png
 
http://leetleech.org/images/07963052205956373765.png
 
http://leetleech.org/images/66505715688481754529.png

Credits to Anti-C and Kawliga55 @ 1337x


Shared By:
##    ##    ###    ##      ## ##       ####  ######      ###    ######## ######## 
##   ##    ## ##   ##  ##  ## ##        ##  ##    ##    ## ##   ##       ##       
##  ##    ##   ##  ##  ##  ## ##        ##  ##         ##   ##  ##       ##       
#####    ##     ## ##  ##  ## ##        ##  ##   #### ##     ## #######  #######  
##  ##   ######### ##  ##  ## ##        ##  ##    ##  #########       ##       ## 
##   ##  ##     ## ##  ##  ## ##        ##  ##    ##  ##     ## ##    ## ##    ## 
##    ## ##     ##  ###  ###  ######## ####  ######   ##     ##  ######   ######  